<svg xmlns="http://www.w3.org/2000/svg" xmlns:xlink="http://www.w3.org/1999/xlink" width="500" zoomAndPan="magnify" viewBox="0 0 375 374.999991" height="500" preserveAspectRatio="xMidYMid meet" version="1.0"><defs><clipPath id="6cddeaa1e9"><path d="M 37.5 37.5 L 337.5 37.5 L 337.5 337.5 L 37.5 337.5 Z M 37.5 37.5 " clip-rule="nonzero"/></clipPath><clipPath id="1c6b46ad9a"><path d="M 54.75 37.5 L 320.25 37.5 C 324.824219 37.5 329.210938 39.316406 332.449219 42.550781 C 335.683594 45.789062 337.5 50.175781 337.5 54.75 L 337.5 320.25 C 337.5 324.824219 335.683594 329.210938 332.449219 332.449219 C 329.210938 335.683594 324.824219 337.5 320.25 337.5 L 54.75 337.5 C 50.175781 337.5 45.789062 335.683594 42.550781 332.449219 C 39.316406 329.210938 37.5 324.824219 37.5 320.25 L 37.5 54.75 C 37.5 50.175781 39.316406 45.789062 42.550781 42.550781 C 45.789062 39.316406 50.175781 37.5 54.75 37.5 Z M 54.75 37.5 " clip-rule="nonzero"/></clipPath><clipPath id="b6c98d3ad9"><path d="M 0.5 0.5 L 300.5 0.5 L 300.5 300.5 L 0.5 300.5 Z M 0.5 0.5 " clip-rule="nonzero"/></clipPath><clipPath id="6abb9e4073"><path d="M 17.75 0.5 L 283.25 0.5 C 287.824219 0.5 292.210938 2.316406 295.449219 5.550781 C 298.683594 8.789062 300.5 13.175781 300.5 17.75 L 300.5 283.25 C 300.5 287.824219 298.683594 292.210938 295.449219 295.449219 C 292.210938 298.683594 287.824219 300.5 283.25 300.5 L 17.75 300.5 C 13.175781 300.5 8.789062 298.683594 5.550781 295.449219 C 2.316406 292.210938 0.5 287.824219 0.5 283.25 L 0.5 17.75 C 0.5 13.175781 2.316406 8.789062 5.550781 5.550781 C 8.789062 2.316406 13.175781 0.5 17.75 0.5 Z M 17.75 0.5 " clip-rule="nonzero"/></clipPath><clipPath id="fc4e49a573"><rect x="0" width="301" y="0" height="301"/></clipPath><clipPath id="868f8190cc"><path d="M 138 74.410156 L 233 74.410156 L 233 300.910156 L 138 300.910156 Z M 138 74.410156 " clip-rule="nonzero"/></clipPath><clipPath id="3f8f6cde7a"><path d="M 212 98 L 325.699219 98 L 325.699219 294 L 212 294 Z M 212 98 " clip-rule="nonzero"/></clipPath><clipPath id="c21738ffa2"><path d="M 48.949219 98 L 178 98 L 178 295 L 48.949219 295 Z M 48.949219 98 " clip-rule="nonzero"/></clipPath></defs><g clip-path="url(#6cddeaa1e9)"><g clip-path="url(#1c6b46ad9a)"><g transform="matrix(1, 0, 0, 1, 37, 37)"><g clip-path="url(#fc4e49a573)"><g clip-path="url(#b6c98d3ad9)"><g clip-path="url(#6abb9e4073)"><path fill="#fefefe" d="M 0.5 0.5 L 300.5 0.5 L 300.5 300.5 L 0.5 300.5 Z M 0.5 0.5 " fill-opacity="1" fill-rule="nonzero"/></g></g></g></g><path stroke-linecap="butt" transform="matrix(0.75, 0, 0, 0.75, 37.500002, 37.499998)" fill="none" stroke-linejoin="miter" d="M 22.999999 0.00000328333 L 377.000022 0.00000328333 C 383.098981 0.00000328333 388.947939 2.421878 393.265648 6.734379 C 397.578148 11.052087 400.000024 16.901046 400.000024 23.000005 L 400.000024 377.000028 C 400.000024 383.098987 397.578148 388.947945 393.265648 393.265654 C 388.947939 397.578154 383.098981 400.00003 377.000022 400.00003 L 22.999999 400.00003 C 16.90104 400.00003 11.052081 397.578154 6.734373 393.265654 C 2.421872 388.947945 -0.00000271667 383.098987 -0.00000271667 377.000028 L -0.00000271667 23.000005 C -0.00000271667 16.901046 2.421872 11.052087 6.734373 6.734379 C 11.052081 2.421878 16.90104 0.00000328333 22.999999 0.00000328333 Z M 22.999999 0.00000328333 " stroke="#ffffff" stroke-width="4" stroke-opacity="1" stroke-miterlimit="4"/></g></g><g clip-path="url(#868f8190cc)"><path fill="#292728" d="M 160.113281 173.511719 C 160.113281 173.511719 160.734375 187.621094 176.917969 196.542969 C 176.917969 196.542969 196.835938 180.898438 196.835938 159.820312 C 196.835938 159.820312 190.28125 152.867188 181.21875 156.253906 L 162.449219 163.269531 C 162.449219 163.269531 150.796875 166.109375 148.570312 157.8125 L 161.441406 157.28125 L 173.617188 150.550781 L 181.335938 148.988281 L 173.304688 148.050781 L 160.121094 154.214844 L 149.40625 151.679688 L 144.910156 155.152344 C 144.910156 155.152344 138.429688 151.824219 138.429688 139.484375 L 148.667969 139.484375 C 148.667969 139.484375 150.605469 140.707031 150.605469 143.117188 C 150.605469 143.117188 152.265625 140.726562 151.410156 137.542969 L 167.847656 127.625 C 167.847656 127.625 166.832031 119.949219 175.621094 115.007812 L 198.144531 102.351562 C 198.144531 102.351562 206.289062 88.671875 198.609375 74.433594 C 198.609375 74.433594 229.15625 86.160156 218.128906 127.316406 C 218.128906 127.316406 232.046875 141.902344 232.046875 168.34375 L 232.046875 227.140625 C 232.046875 267.832031 189.476562 265.347656 180.09375 300.527344 C 158.476562 250.09375 209.292969 237.941406 217.589844 193.488281 C 202.550781 219.953125 179.089844 228.453125 179.089844 228.453125 C 164.003906 218.230469 154.71875 204.140625 160.113281 173.511719 Z M 190.1875 124.703125 C 192.722656 124.023438 192.769531 120.222656 192.769531 120.222656 L 195.449219 117.15625 C 187.390625 118.839844 183.203125 120.992188 181.925781 127.449219 C 184.679688 126.535156 187.429688 125.621094 190.1875 124.703125 Z M 190.1875 124.703125 " fill-opacity="1" fill-rule="evenodd"/></g><path fill="#292728" d="M 154.234375 129.625 L 160.539062 125.839844 L 152.628906 121.597656 C 152.628906 121.597656 152.054688 126.414062 154.234375 129.625 Z M 154.234375 129.625 " fill-opacity="1" fill-rule="evenodd"/><path fill="#292728" d="M 156.621094 112.503906 C 156.621094 112.503906 169.523438 100.296875 182.082031 97.851562 C 182.082031 97.851562 163.71875 93.992188 169.175781 75.355469 C 155.542969 81.425781 152.320312 101.15625 156.621094 112.503906 Z M 156.621094 112.503906 " fill-opacity="1" fill-rule="evenodd"/><g clip-path="url(#3f8f6cde7a)"><path fill="#292728" d="M 228.902344 232.007812 C 228.902344 232.007812 241.851562 276.078125 212.335938 293.121094 C 268.914062 288.65625 285.464844 237.789062 257.691406 193.644531 C 257.691406 193.644531 251.671875 192.894531 248.851562 197.40625 C 248.851562 197.40625 247.140625 187.230469 259.363281 187.230469 L 280.449219 189.695312 C 289.65625 200.46875 300.289062 204.167969 308.617188 189.75 C 308.617188 189.75 304.515625 188.890625 299.445312 187.484375 L 295.957031 180.960938 L 292.296875 185.285156 C 290.75 184.75 289.234375 184.183594 287.835938 183.585938 C 277.1875 179.054688 285.910156 167.988281 293.742188 173.105469 C 298.648438 176.316406 303.074219 183.65625 308.859375 182.117188 C 316.875 179.992188 325.378906 170.832031 326.035156 162.164062 L 318.871094 163.054688 L 302.34375 152.632812 C 298.871094 150.445312 297.808594 146.328125 300.324219 143.234375 C 300.324219 143.234375 294.136719 134.207031 288.128906 131.523438 C 282.125 128.832031 275.800781 124.40625 278.488281 119.195312 C 281.175781 113.976562 287.496094 98.964844 287.496094 98.964844 C 287.496094 98.964844 256.835938 106.550781 247.988281 119.984375 C 247.988281 119.984375 236.835938 123.050781 227.917969 130.195312 C 231.140625 135.445312 234.746094 145.289062 232.046875 161.246094 L 227.679688 187.070312 C 267.195312 229.605469 244.675781 267.304688 244.675781 267.304688 C 249.480469 232.480469 234.355469 209.925781 226.625 200.640625 Z M 293.34375 157.816406 C 293.34375 146.03125 288.8125 142.9375 277.769531 140.632812 L 280.761719 144.058594 C 280.761719 144.058594 280.820312 148.296875 283.652344 149.054688 L 287.1875 150.234375 C 291.21875 151.574219 292.5625 154.984375 293.34375 157.816406 Z M 293.34375 157.816406 " fill-opacity="1" fill-rule="evenodd"/></g><g clip-path="url(#c21738ffa2)"><path fill="#292728" d="M 166.515625 294.109375 L 166.511719 294.109375 C 104.140625 289.257812 89.523438 237.789062 117.296875 193.644531 C 117.296875 193.644531 123.316406 192.894531 126.136719 197.40625 C 126.136719 197.40625 127.851562 187.230469 115.625 187.230469 L 94.539062 189.695312 C 85.335938 200.46875 74.695312 204.167969 66.375 189.75 C 66.375 189.75 70.472656 188.890625 75.546875 187.484375 L 79.03125 180.960938 L 82.691406 185.285156 C 84.242188 184.75 85.753906 184.183594 87.152344 183.585938 C 97.804688 179.054688 89.082031 167.988281 81.246094 173.105469 C 76.339844 176.316406 71.917969 183.65625 66.128906 182.117188 C 58.113281 179.992188 49.609375 170.832031 48.957031 162.164062 L 56.117188 163.054688 L 72.644531 152.632812 C 76.117188 150.445312 77.179688 146.328125 74.664062 143.234375 C 74.664062 143.234375 80.855469 134.207031 86.863281 131.523438 C 92.867188 128.832031 99.1875 124.40625 96.5 119.195312 C 93.816406 113.976562 87.492188 98.964844 87.492188 98.964844 C 87.492188 98.964844 118.152344 106.550781 127.003906 119.984375 C 127.003906 119.984375 136.738281 122.65625 145.285156 128.835938 L 127.765625 139.484375 C 127.765625 148.644531 131.140625 159.898438 139.796875 164.515625 C 141.933594 168.566406 145.375 171.308594 149.402344 172.867188 C 148.617188 177.566406 148.113281 182.097656 147.9375 186.464844 C 115.613281 220.667969 134.980469 263.027344 134.980469 263.027344 C 132.9375 234.566406 139.457031 215.570312 149.285156 203.792969 C 152.125 216.855469 159.445312 228.023438 173.109375 237.28125 L 177.609375 240.335938 L 177.671875 240.308594 C 171.917969 248.351562 167.265625 256.769531 165.222656 266.609375 C 163.273438 275.984375 164.027344 285.183594 166.515625 294.109375 Z M 81.644531 157.816406 C 81.644531 146.03125 86.175781 142.9375 97.21875 140.632812 L 94.226562 144.058594 C 94.226562 144.058594 94.171875 148.296875 91.339844 149.054688 L 87.804688 150.234375 C 83.769531 151.574219 82.425781 154.984375 81.644531 157.816406 Z M 81.644531 157.816406 " fill-opacity="1" fill-rule="evenodd"/></g></svg>